<svg id="Camada_1" data-name="Camada 1" xmlns="http://www.w3.org/2000/svg" viewBox="0 0 151.65 52.82"><defs><style>.cls-1{fill:#aaacae;fill-rule:evenodd;}.cls-2{fill:#3f4096;}.cls-3{fill:#373535;stroke:#373535;stroke-miterlimit:22.93;stroke-width:0.22px;}.cls-4{fill:#00b0f0;}</style></defs><title>logo180x54</title><path id="path46" class="cls-1" d="M128.16,4.22l-.24.11-.14-.43.49-.22.09.28a5.26,5.26,0,0,1,1.25-.89L130,2.9A2,2,0,0,1,132.2,4l.38,1.13a2.87,2.87,0,0,1-1.26,2.54l-.24.11c-.75.34-.52-.23-1.37.13-.44-.73-1-.39-1.55-2.08-.12-.32.17-1,0-1.63Zm-6.89,36.3c-1.06.37-3.64-2-4.41-1.76l.07-.14-1.68-1.25-.49.22c-.41-1.14-1.61-1-1.92-1.91-.2-.59.45-1.19.35-1.46-.17-.51-.48-.43-.92-.24-.37-.85-.63-.4-1-.74s-.51-.71-1-1.11a12.68,12.68,0,0,1-2-2.05l-.25.11c.49,3.83-.13,5.44,1.44,10.08l.71-.43c.06-.31.15-1.05.44-1.18l.54-.16,1.07.74c.46,1.34,2.24,2.74,3,3.55a6.7,6.7,0,0,0,1.69,1.45c.83.58.78,1.37,1.78,1.2a6.43,6.43,0,0,0,2,1.9,23.47,23.47,0,0,0,2.41.84l.44.77c1.08-.34,1.63.63,2.55.76a24.94,24.94,0,0,1,2.71.61l.63,1.85c.42,1.26.4.66.85,1.24.55-.27,1.42-2.28,1.82-3L136,49l.86-.39.1.28.49-.22,6.35-4.19c.09-.47,2.24-2.35,2.77-2.82.87-.79.74-.46,1.35-1.44a9.25,9.25,0,0,1,1.4-1.52l.49-.22.25.71.24-.43.81,1.59h.14l1.25-5.22-.24-.71c.56-.75.44-3.35.29-4.54-.45.55-.9.45-.81,1.35l-1.47.66c0,.56-.71,1-1.28,1.24l-1.47.66a10.32,10.32,0,0,1,.46.94l.1.28c.11.34-.06.51-.14.86l-2.86,1.62-.26.44L140.74,40l-2,.92-1.65.55-.1-.29c-1,.44-1.85.69-2.61,1-1.57.69-1.4.35-2.57.49l.33-2.08c-.58-1.68-.14-3.62-.17-5,0-1.12.2-4-.12-5h.15l.08-2.23c-.43-1.28-.19-5.4-.12-6.75,0-.56,0-1.06.05-1.62a13.79,13.79,0,0,0-.2-1.74c0-.78.48-2.18.08-3.37.2-.32.26-.61.71-.81l.13-.06c1.85-.84,6.82.67,8.94-.3-.24-.92.16-1.59-.11-2.4-.05-.13-6.6-.27-7.58.17-.33-.08-1.77-.24-1.9-.61-.24-.71-.06-.84-.22-1.5l1.41-.83a12.18,12.18,0,0,0,1-1.86,16.6,16.6,0,0,0,0-2.34l-.6-1.47-.7-.72c-.55-1.6-1-.49-1.61-1.4-1,.42-.87-.41-1.46-.15l-1.59.73c-1.11.5-1.25,2.26-2,2.86a17.64,17.64,0,0,0,.35,3.11l.15.43c.47,0,.57.44.8,1.1a.69.69,0,0,1,.85.43l.38,1.14c.11.32.06.46-.22.59l-1.1.5c-.33-.41-3.16-.13-3.87-.24-.26,0-4,.05-4.1.09l-.49.23L119.2,14l3.21.22,3.62,0,.49-.22c.78.2,1.83-.45,2,.21l.1.29c.46,1.34,0,1.66.47,3.05-.68.39-.49,1.06-.21,1.89-.06.32-.16.36-.05.68l.15.42h-.15l-.24,4.27.28.85a20.68,20.68,0,0,0-.2,3.77,35.09,35.09,0,0,1,0,3.85l.39,1.61-.37.17c.48,1.41-.4,5.07.33,7.21-.16.27-.12.38-.39.5l-.37.17-.1-.29-.36.17c-.47.21-.06,0-.29.17l-1.08-.37,0,.19c-.2-.47-2.3-1.06-2.83-.84l-.14-.42c-.62.21-1.87-.59-2.17-1" transform="translate(-14.18 -0.59)"/><path id="path48" class="cls-2" d="M22.81,25h8.45L27.1,17.2Zm-8.63,7.7L25.09,13.45h4.32L40.48,32.74h-5l-2.32-4.21H20.89l-2.24,4.21Zm31.09,0V16.94h2.65L61.33,27.43V16.94h3.49v15.8H62.15L48.78,22.09V32.74Zm40.46-12.9H75.35v9.88H85.73V26.36l3.89.78V29A4,4,0,0,1,88.76,32a5,5,0,0,1-3.29.79H75.6A4.92,4.92,0,0,1,72.36,32,3.91,3.91,0,0,1,71.5,29V20.67a4,4,0,0,1,.84-2.94,4.89,4.89,0,0,1,3.26-.79h9.87c1.64,0,2.73.26,3.3.79a3.92,3.92,0,0,1,.85,2.94V22.2l-3.89.56Zm13.69,9.88h12.73V19.84H99.42Zm-3.85-9a4,4,0,0,1,.84-2.94c.56-.53,1.64-.79,3.26-.79H111.9c1.63,0,2.72.26,3.28.79a4,4,0,0,1,.82,2.94V29a4,4,0,0,1-.84,2.95,5,5,0,0,1-3.26.78H99.67A4.92,4.92,0,0,1,96.41,32,4,4,0,0,1,95.57,29Zm39.69-1h-8.8V24h8.8a2.27,2.27,0,0,0,1.37-.3,1.16,1.16,0,0,0,.38-1V20.94a1.16,1.16,0,0,0-.38-1A2.27,2.27,0,0,0,135.26,19.66Zm-12.6,13.08V16.94H136.9a4.42,4.42,0,0,1,2.82.72A2.87,2.87,0,0,1,140.6,20v3.71a2.82,2.82,0,0,1-.88,2.33,4.49,4.49,0,0,1-2.82.71h-2.17l7.52,6h-5.54l-6.62-6h-3.63v6Zm20.55,0,9.38-15.8h3.71l9.52,15.8H161.5l-2-3.47H149.06l-2,3.47Zm7.48-6.35h7.25l-3.68-6.58Z" transform="translate(-14.18 -0.59)"/><path id="path50" class="cls-3" d="M36.47,38.44h-5v1.63h4.73a2.22,2.22,0,0,1,1.51.38,2,2,0,0,1,.39,1.42v1a2,2,0,0,1-.39,1.42,2.22,2.22,0,0,1-1.51.38H31.54a2.2,2.2,0,0,1-1.5-.38,2,2,0,0,1-.39-1.42V42.7l1.55-.32v.9h5.37V41.55H31.84a2.2,2.2,0,0,1-1.5-.38A2,2,0,0,1,30,39.75v-.84a2,2,0,0,1,.39-1.42,2.2,2.2,0,0,1,1.5-.38h4.31a2.19,2.19,0,0,1,1.47.37,1.66,1.66,0,0,1,.41,1.3v.16l-1.56.36Zm6.14,5.07h5V39.63h-5ZM41.09,40a1.58,1.58,0,0,1,.33-1.16,2,2,0,0,1,1.29-.31h4.81a2,2,0,0,1,1.29.31A1.58,1.58,0,0,1,49.14,40v3.29a1.55,1.55,0,0,1-.34,1.16,2,2,0,0,1-1.28.31H42.71a2,2,0,0,1-1.29-.31,1.59,1.59,0,0,1-.33-1.16Zm10.67,4.76V38.48h1.53v5.06h4.88v1.17Zm9.9-6.23v5.06H66V38.48h1.53v4.75a1.53,1.53,0,0,1-.34,1.16,1.93,1.93,0,0,1-1.29.32H61.77a2,2,0,0,1-1.28-.31,1.56,1.56,0,0,1-.34-1.17V38.48Zm14.09,1.15H71.66v3.88h4.09V42.19l1.53.31v.74a1.59,1.59,0,0,1-.34,1.16,2,2,0,0,1-1.3.31H71.76a2,2,0,0,1-1.28-.31,1.55,1.55,0,0,1-.34-1.16V40a1.58,1.58,0,0,1,.33-1.16,2,2,0,0,1,1.29-.31h3.88a2,2,0,0,1,1.3.31A1.53,1.53,0,0,1,77.28,40v.6l-1.53.23Zm-3.68,8.19V47c.4.1.75.18,1.06.23a5.14,5.14,0,0,0,.78.08,1,1,0,0,0,.58-.14.45.45,0,0,0,.2-.4.46.46,0,0,0-.25-.44,1.69,1.69,0,0,0-.78-.13h-.29V44.71H74v.67h.12a2.06,2.06,0,0,1,1.28.34,1.31,1.31,0,0,1,.41,1.05,1.2,1.2,0,0,1-.46,1,2.15,2.15,0,0,1-1.33.35,5,5,0,0,1-.89-.08A9.86,9.86,0,0,1,72.07,47.82Zm9.06-4.31h5V39.63h-5ZM79.62,40A1.58,1.58,0,0,1,80,38.79a2,2,0,0,1,1.28-.31h4.82a2,2,0,0,1,1.29.31A1.58,1.58,0,0,1,87.66,40v3.29a1.59,1.59,0,0,1-.33,1.16,2,2,0,0,1-1.28.31H81.23A2,2,0,0,1,80,44.4a1.59,1.59,0,0,1-.33-1.16Zm6.19-4.31a2.66,2.66,0,0,1-.51,1.24,1.2,1.2,0,0,1-.92.38h-.23l-.27-.06-.6-.18L83,37h-.21a.61.61,0,0,0-.39.12.8.8,0,0,0-.23.36h-.72A2.44,2.44,0,0,1,82,36.24a1.13,1.13,0,0,1,.9-.39l.28,0a2.14,2.14,0,0,1,.32.08l.64.18.17,0h.19a.56.56,0,0,0,.4-.14.74.74,0,0,0,.22-.39Zm4.48,9.07V38.48H97v1.1H91.82v1.36h3V42h-3v1.53H97v1.17ZM105,39.6H100.7v1.31h4a1.92,1.92,0,0,1,1.29.31,1.56,1.56,0,0,1,.33,1.16v.85A1.6,1.6,0,0,1,106,44.4a2,2,0,0,1-1.28.31h-4a2,2,0,0,1-1.3-.31,1.56,1.56,0,0,1-.34-1.17v-.17l1.35-.25v.73H105V42.12h-4a2,2,0,0,1-1.29-.31,1.55,1.55,0,0,1-.34-1.16V40a1.5,1.5,0,0,1,.34-1.15,2,2,0,0,1,1.29-.32h3.7a2.1,2.1,0,0,1,1.29.3,1.35,1.35,0,0,1,.35,1.06V40l-1.32.28Zm9.71,5.11V38.48h6.67v1.1h-5.14v1.36h3V42h-3v1.53h5.22v1.17Zm8.94,0V38.48h1.22l3,3.7,3-3.7h1.23v6.23h-1.41V40.42L128,44h-.3l-2.81-3.43v4.18Zm21.08-6.24v6.24h-1.77V38.47h-3.49V37.11h8.76v1.36Zm5.66,6.24v-7.6h1.77v7.6Z" transform="translate(-14.18 -0.59)"/><path id="path52" class="cls-4" d="M35.93,37.89H31v1.64h4.74a2.15,2.15,0,0,1,1.5.38,1.9,1.9,0,0,1,.4,1.41v1a1.92,1.92,0,0,1-.4,1.41,2.2,2.2,0,0,1-1.5.38H31a2.22,2.22,0,0,1-1.51-.38,2,2,0,0,1-.39-1.41v-.21l1.56-.33v.9H36V41H31.29a2.17,2.17,0,0,1-1.49-.38,2,2,0,0,1-.39-1.42v-.84A2,2,0,0,1,29.8,37a2.12,2.12,0,0,1,1.49-.38H35.6a2.27,2.27,0,0,1,1.48.36,1.71,1.71,0,0,1,.41,1.3v.16l-1.56.37ZM42.06,43h5V39.08h-5Zm-1.51-3.56a1.56,1.56,0,0,1,.33-1.16,1.89,1.89,0,0,1,1.28-.31H47a1.92,1.92,0,0,1,1.29.31,1.61,1.61,0,0,1,.32,1.16v3.28a1.56,1.56,0,0,1-.33,1.16,1.91,1.91,0,0,1-1.28.31H42.16a1.89,1.89,0,0,1-1.28-.31,1.56,1.56,0,0,1-.33-1.16Zm10.66,4.75V37.94h1.53V43h4.88v1.16Zm9.9-6.22V43h4.34V37.94H67v4.75a1.55,1.55,0,0,1-.34,1.16,2,2,0,0,1-1.3.31H61.22a1.91,1.91,0,0,1-1.28-.31,1.56,1.56,0,0,1-.33-1.16V37.94ZM75.2,39.08H71.11V43H75.2V41.65l1.53.31v.73a1.55,1.55,0,0,1-.34,1.16,1.92,1.92,0,0,1-1.29.31H71.21a1.93,1.93,0,0,1-1.28-.31,1.56,1.56,0,0,1-.33-1.16V39.41a1.56,1.56,0,0,1,.33-1.16,1.91,1.91,0,0,1,1.28-.31H75.1a2,2,0,0,1,1.3.31,1.56,1.56,0,0,1,.33,1.16V40l-1.53.22Zm-3.67,8.2v-.86a9.48,9.48,0,0,0,1,.24,5,5,0,0,0,.79.07,1,1,0,0,0,.57-.14.43.43,0,0,0,.2-.4.45.45,0,0,0-.24-.43,1.66,1.66,0,0,0-.78-.14h-.3V44.16h.65v.68h.11a2,2,0,0,1,1.28.34,1.27,1.27,0,0,1,.42,1,1.19,1.19,0,0,1-.47,1,2.13,2.13,0,0,1-1.33.36,6.22,6.22,0,0,1-.89-.08C72.26,47.45,71.9,47.38,71.53,47.28ZM80.59,43h5V39.08h-5Zm-1.52-3.56a1.56,1.56,0,0,1,.33-1.16,1.92,1.92,0,0,1,1.29-.31H85.5a1.89,1.89,0,0,1,1.29.31,1.56,1.56,0,0,1,.33,1.16v3.28a1.56,1.56,0,0,1-.33,1.16,1.94,1.94,0,0,1-1.29.31H80.69a1.92,1.92,0,0,1-1.29-.31,1.56,1.56,0,0,1-.33-1.16Zm6.2-4.32a2.72,2.72,0,0,1-.51,1.24,1.19,1.19,0,0,1-.92.39l-.24,0-.27-.06-.59-.18-.26-.05-.2,0a.61.61,0,0,0-.39.12.73.73,0,0,0-.23.36h-.72a2.45,2.45,0,0,1,.48-1.17,1.12,1.12,0,0,1,.9-.4l.29,0a2,2,0,0,1,.31.07l.64.18.18,0h.19a.6.6,0,0,0,.39-.14.75.75,0,0,0,.23-.4Zm4.47,9.07V37.94h6.68V39H91.27v1.35h3v1.08h-3V43H96.5v1.16Zm14.7-5.11h-4.29v1.32h4.06a2,2,0,0,1,1.28.3,1.56,1.56,0,0,1,.33,1.16v.86a1.52,1.52,0,0,1-.34,1.16,1.89,1.89,0,0,1-1.27.31h-4a2,2,0,0,1-1.31-.31,1.52,1.52,0,0,1-.34-1.16v-.17l1.35-.26V43h4.58V41.57h-4a2,2,0,0,1-1.3-.31,1.58,1.58,0,0,1-.33-1.16v-.7a1.56,1.56,0,0,1,.33-1.15,2,2,0,0,1,1.3-.31h3.69a2,2,0,0,1,1.29.3,1.3,1.3,0,0,1,.35,1v.15l-1.31.28Zm9.7,5.11V37.94h6.68V39h-5.15v1.35h3v1.08h-3V43h5.23v1.16Zm9,0V37.94h1.21l3,3.69,3-3.69h1.22v6.22h-1.41V39.88l-2.78,3.53h-.29L124.3,40v4.18Zm21.07-6.24v6.24h-1.77V37.92h-3.48V36.57h8.75v1.35Zm5.66,6.24V36.57h1.77v7.59Z" transform="translate(-14.18 -0.59)"/></svg>